<svg width="30" height="30" viewBox="0 0 30 30" fill="none" xmlns="http://www.w3.org/2000/svg">
  <circle cx="15" cy="15" r="15" fill="#26284C" />
  <path d="M10.9592 24.4444C11.49 24.4444 11.9185 24.016 11.9185 23.4852V18.6491H21.6707C22.0288 18.6491 22.3549 18.4508 22.5212 18.1439C22.6875 17.8305 22.6683 17.4468 22.47 17.1527L20.2766 13.8977L22.47 10.6427C22.6683 10.3485 22.6875 9.96481 22.5212 9.65787C22.3549 9.34452 22.0288 9.14628 21.6707 9.14628H11.9185V8.737C11.9185 8.20622 11.49 7.77777 10.9592 7.77777C10.4348 7.77777 10 8.20622 10 8.737V23.4852C10 24.016 10.4348 24.4444 10.9592 24.4444Z" fill="#8789C3" />
</svg>