<svg width="30" height="30" viewBox="0 0 30 30" fill="none" xmlns="http://www.w3.org/2000/svg">
  <circle cx="15" cy="15" r="15" fill="#26284C" />
  <path fill-rule="evenodd" clip-rule="evenodd" d="M15.1913 7.77779H15.9941C16.2052 7.77887 16.4074 7.86365 16.5563 8.0136C16.7052 8.16354 16.7888 8.36646 16.7888 8.57798V20.3109C16.7888 20.5231 16.7046 20.7266 16.5548 20.8767C16.405 21.0268 16.2019 21.1111 15.99 21.1111H15.1913C15.015 21.1122 14.8432 21.0549 14.7028 20.948L11.2596 18.31C11.2391 18.2946 11.2226 18.2747 11.2113 18.2517C11.2 18.2288 11.1942 18.2035 11.1945 18.1779V10.711C11.1942 10.6854 11.2 10.6601 11.2113 10.6372C11.2226 10.6142 11.2391 10.5942 11.2596 10.5789L14.7028 7.94093C14.8432 7.83401 15.015 7.77665 15.1913 7.77779ZM20.2821 20.3987C20.4136 20.4867 20.5682 20.5337 20.7263 20.5336C20.831 20.5336 20.9346 20.5129 21.0313 20.4727C21.128 20.4325 21.2158 20.3737 21.2898 20.2995C22.0584 19.5315 22.6682 18.6191 23.0842 17.6146C23.5003 16.6101 23.7144 15.5332 23.7144 14.4457C23.7144 13.3581 23.5003 12.2812 23.0842 11.2767C22.6682 10.2723 22.0584 9.35986 21.2898 8.59184C21.1387 8.44749 20.9372 8.36813 20.7285 8.37076C20.5197 8.37338 20.3203 8.45778 20.1729 8.60588C20.0255 8.75399 19.9418 8.95402 19.9398 9.16315C19.9378 9.37229 20.0176 9.57391 20.1621 9.72484C20.782 10.3442 21.2737 11.08 21.6093 11.8901C21.9448 12.7001 22.1176 13.5686 22.1176 14.4457C22.1176 15.3227 21.9448 16.1912 21.6093 17.0012C21.2737 17.8113 20.782 18.5471 20.1621 19.1665C20.0501 19.2783 19.9737 19.4209 19.9426 19.5763C19.9116 19.7316 19.9273 19.8927 19.9877 20.0391C20.0481 20.1856 20.1506 20.3107 20.2821 20.3987ZM18.1447 18.0146C18.2746 18.0998 18.4265 18.1452 18.5818 18.1452C18.6919 18.1454 18.8008 18.1227 18.9017 18.0786C19.0026 18.0346 19.0933 17.97 19.168 17.8891C20.0335 16.9525 20.5142 15.7232 20.5142 14.4469C20.5142 13.1706 20.0335 11.9413 19.168 11.0047C19.0241 10.8489 18.8243 10.7568 18.6126 10.7486C18.4009 10.7404 18.1946 10.8168 18.0392 10.961C17.8837 11.1052 17.7917 11.3054 17.7836 11.5175C17.7754 11.7296 17.8517 11.9362 17.9956 12.092C18.5876 12.7327 18.9165 13.5737 18.9165 14.4469C18.9165 15.32 18.5876 16.161 17.9956 16.8018C17.8902 16.916 17.8203 17.0585 17.7944 17.212C17.7686 17.3654 17.788 17.523 17.8502 17.6655C17.9124 17.8081 18.0147 17.9294 18.1447 18.0146ZM9.96609 11.2453H8.13742C7.94496 11.2453 7.75439 11.2833 7.57658 11.3571C7.39877 11.4309 7.23721 11.539 7.10112 11.6754C6.96503 11.8117 6.85708 11.9736 6.78343 12.1517C6.70978 12.3298 6.67188 12.5207 6.67188 12.7136V16.1811C6.67188 16.5705 6.82628 16.9439 7.10112 17.2193C7.37597 17.4946 7.74873 17.6493 8.13742 17.6493H9.96609C10.0093 17.6493 10.0507 17.6321 10.0812 17.6015C10.1118 17.5709 10.1289 17.5294 10.1289 17.4862V11.4084C10.1289 11.387 10.1247 11.3658 10.1165 11.346C10.1083 11.3262 10.0964 11.3082 10.0812 11.2931C10.0661 11.2779 10.0482 11.2659 10.0284 11.2577C10.0086 11.2495 9.98747 11.2453 9.96609 11.2453Z" fill="#FFCC5B" />
</svg>