<svg width="32" height="32" viewBox="0 0 32 32" fill="none" xmlns="http://www.w3.org/2000/svg">
<rect width="32" height="32" rx="6" fill="#ED1D24"/>
<path d="M26.6878 10.5623C26.4378 9.62482 25.6253 8.87482 24.6878 8.62482C22.5628 8.06232 9.75031 7.99982 7.31281 8.62482C6.37531 8.87482 5.56281 9.62482 5.31281 10.5623C4.75031 12.9373 4.68781 18.9998 5.31281 21.4373C5.56281 22.3748 6.37531 23.1248 7.31281 23.3748C9.56281 23.9998 22.3753 23.9998 24.6878 23.3748C25.6253 23.1248 26.4378 22.3748 26.6878 21.4373C27.2503 19.1873 27.2503 12.8748 26.6878 10.5623Z" fill="white"/>
<path d="M13.75 12.6875V19.3125L19.5625 16" fill="#ED1D24"/>
</svg>
